<svg width="134" height="69" viewBox="0 0 134 69" fill="none" xmlns="http://www.w3.org/2000/svg">
<path d="M99.4682 0C94.3979 0 89.4186 1.08604 84.8316 3.22788C80.2441 5.36966 76.2007 8.47685 72.9413 12.3683L46.535 20.996V0H26.3458V21.0262L6.27708 14.4498L0 33.6358L19.9781 40.1821L7.69549 57.0754L24.0823 68.9308L36.4253 51.8869L48.7985 68.9308L65.1854 57.0754L52.8725 40.1517L64.9437 36.2301C65.2759 42.9576 67.5994 49.4732 71.5833 54.9034C75.597 60.3335 81.0894 64.4962 87.4267 66.8492C93.7645 69.2021 100.645 69.6247 107.254 68.1161C113.833 66.5778 119.838 63.1691 124.486 58.2817C129.133 53.3948 132.272 47.241 133.449 40.6046C134.656 33.9676 133.871 27.1198 131.185 20.9055C128.529 14.6912 124.094 9.41203 118.45 5.70154C112.807 1.99105 106.198 0 99.4379 0H99.4682ZM99.4682 48.8097C96.6309 48.8097 93.8549 47.9652 91.501 46.3966C89.1471 44.8279 87.3058 42.5952 86.2193 39.9708C85.1335 37.3465 84.8614 34.4805 85.4049 31.7052C85.9479 28.9298 87.3362 26.3657 89.3281 24.3747C91.3201 22.3837 93.8847 20.996 96.6613 20.453C99.4379 19.91 102.335 20.1815 104.961 21.2675C107.586 22.3535 109.819 24.1937 111.388 26.5467C112.958 28.8997 113.802 31.675 113.802 34.5109C113.802 38.3117 112.294 41.962 109.608 44.6464C106.922 47.3315 103.271 48.84 99.4682 48.84V48.8097Z" fill="white"/>
</svg>
